# xmcd CD database file
#
# Track frame offsets:
#	150
#	21297
#	41912
#	64067
#	94922
#	116800
#	136849
#	158047
#	179627
#	196769
#	224760
#
# Disc length: 3399 seconds
#
# Revision: 2
# Processed by: cddbd v1.5.2PL0 Copyright (c) Steve Scherf et al.
# Submitted via: CDex 1.70beta2
#
DISCID=a50d450b
DTITLE=Kirk Whalum, 1958- - Roundtrip
DYEAR=2007
DGENRE=Jazz Saxaphone
TTITLE0=Courtney
TTITLE1=Desperately
TTITLE2=Ruby Ruby Ruby - feat. Earl Klugh
TTITLE3=Glow - feat. Jeff Golub
TTITLE4=The Wave
TTITLE5=Big Ol' Shoes
TTITLE6=Inside
TTITLE7=In a whisper - feat. Kim Fields
TTITLE8=Roundtrip - feat. Kenneth "Peanuts" Kyle and Kevin Whalum
TTITLE9=Back in the day - feat. "Caleb tha Bridge" and Gerald Albright
TTITLE10=Afterthought
EXTD=YEAR: 2007
EXTT0=
EXTT1=
EXTT2=
EXTT3=
EXTT4=
EXTT5=
EXTT6=
EXTT7=
EXTT8=
EXTT9=
EXTT10=
PLAYORDER=
